<mxfile host="app.diagrams.net" agent="Mozilla/5.0 (Windows NT 10.0; Win64; x64) AppleWebKit/537.36 (KHTML, like Gecko) Chrome/131.0.0.0 Safari/537.36" version="24.8.3">
  <diagram id="2TaP7NYXVBXx6e11orQC" name="Página-1">
    <mxGraphModel dx="1050" dy="2860" grid="1" gridSize="10" guides="1" tooltips="1" connect="1" arrows="1" fold="1" page="1" pageScale="1" pageWidth="827" pageHeight="1169" math="0" shadow="0">
      <root>
        <mxCell id="0" />
        <mxCell id="1" parent="0" />
        <mxCell id="BzwNZcg5VRHFtzT_5H1Z-67" style="edgeStyle=orthogonalEdgeStyle;rounded=0;orthogonalLoop=1;jettySize=auto;html=1;entryX=0;entryY=0.5;entryDx=0;entryDy=0;endArrow=none;endFill=0;dashed=1;dashPattern=8 8;" parent="1" source="BzwNZcg5VRHFtzT_5H1Z-65" target="BzwNZcg5VRHFtzT_5H1Z-66" edge="1">
          <mxGeometry relative="1" as="geometry" />
        </mxCell>
        <mxCell id="BzwNZcg5VRHFtzT_5H1Z-69" style="edgeStyle=orthogonalEdgeStyle;rounded=0;orthogonalLoop=1;jettySize=auto;html=1;" parent="1" source="BzwNZcg5VRHFtzT_5H1Z-66" target="BzwNZcg5VRHFtzT_5H1Z-68" edge="1">
          <mxGeometry relative="1" as="geometry" />
        </mxCell>
        <mxCell id="BzwNZcg5VRHFtzT_5H1Z-66" value="" style="ellipse;fillColor=strokeColor;html=1;" parent="1" vertex="1">
          <mxGeometry x="330" y="-2255" width="30" height="30" as="geometry" />
        </mxCell>
        <mxCell id="BzwNZcg5VRHFtzT_5H1Z-71" style="edgeStyle=orthogonalEdgeStyle;rounded=0;orthogonalLoop=1;jettySize=auto;html=1;entryX=0.5;entryY=0;entryDx=0;entryDy=0;" parent="1" source="BzwNZcg5VRHFtzT_5H1Z-68" target="BzwNZcg5VRHFtzT_5H1Z-70" edge="1">
          <mxGeometry relative="1" as="geometry" />
        </mxCell>
        <mxCell id="BzwNZcg5VRHFtzT_5H1Z-68" value="cria um pedido para a mesa" style="html=1;align=center;verticalAlign=top;rounded=1;absoluteArcSize=1;arcSize=10;dashed=0;whiteSpace=wrap;" parent="1" vertex="1">
          <mxGeometry x="275" y="-2190" width="140" height="40" as="geometry" />
        </mxCell>
        <mxCell id="BzwNZcg5VRHFtzT_5H1Z-73" style="edgeStyle=orthogonalEdgeStyle;rounded=0;orthogonalLoop=1;jettySize=auto;html=1;entryX=0.5;entryY=0;entryDx=0;entryDy=0;" parent="1" source="BzwNZcg5VRHFtzT_5H1Z-70" target="BzwNZcg5VRHFtzT_5H1Z-72" edge="1">
          <mxGeometry relative="1" as="geometry" />
        </mxCell>
        <mxCell id="BzwNZcg5VRHFtzT_5H1Z-70" value="adiciona o item ao pedido" style="html=1;align=center;verticalAlign=top;rounded=1;absoluteArcSize=1;arcSize=10;dashed=0;whiteSpace=wrap;" parent="1" vertex="1">
          <mxGeometry x="275" y="-2110" width="140" height="40" as="geometry" />
        </mxCell>
        <mxCell id="BzwNZcg5VRHFtzT_5H1Z-74" style="edgeStyle=orthogonalEdgeStyle;rounded=0;orthogonalLoop=1;jettySize=auto;html=1;entryX=0;entryY=0.5;entryDx=0;entryDy=0;exitX=0;exitY=0.5;exitDx=0;exitDy=0;" parent="1" source="BzwNZcg5VRHFtzT_5H1Z-72" target="BzwNZcg5VRHFtzT_5H1Z-68" edge="1">
          <mxGeometry relative="1" as="geometry">
            <Array as="points">
              <mxPoint x="200" y="-1985" />
              <mxPoint x="200" y="-2170" />
            </Array>
          </mxGeometry>
        </mxCell>
        <mxCell id="BzwNZcg5VRHFtzT_5H1Z-75" value="SIM" style="edgeLabel;html=1;align=center;verticalAlign=middle;resizable=0;points=[];" parent="BzwNZcg5VRHFtzT_5H1Z-74" vertex="1" connectable="0">
          <mxGeometry x="0.2001" relative="1" as="geometry">
            <mxPoint as="offset" />
          </mxGeometry>
        </mxCell>
        <mxCell id="BzwNZcg5VRHFtzT_5H1Z-78" style="edgeStyle=orthogonalEdgeStyle;rounded=0;orthogonalLoop=1;jettySize=auto;html=1;" parent="1" source="BzwNZcg5VRHFtzT_5H1Z-72" target="BzwNZcg5VRHFtzT_5H1Z-77" edge="1">
          <mxGeometry relative="1" as="geometry" />
        </mxCell>
        <mxCell id="BzwNZcg5VRHFtzT_5H1Z-89" value="NÃO" style="edgeLabel;html=1;align=center;verticalAlign=middle;resizable=0;points=[];" parent="BzwNZcg5VRHFtzT_5H1Z-78" vertex="1" connectable="0">
          <mxGeometry x="-0.1647" y="2" relative="1" as="geometry">
            <mxPoint as="offset" />
          </mxGeometry>
        </mxCell>
        <mxCell id="BzwNZcg5VRHFtzT_5H1Z-72" value="escolher&#xa; mais &#xa;itens?" style="rhombus;" parent="1" vertex="1">
          <mxGeometry x="297.5" y="-2030" width="95" height="90" as="geometry" />
        </mxCell>
        <mxCell id="BzwNZcg5VRHFtzT_5H1Z-81" style="edgeStyle=orthogonalEdgeStyle;rounded=0;orthogonalLoop=1;jettySize=auto;html=1;entryX=0.5;entryY=0;entryDx=0;entryDy=0;" parent="1" source="BzwNZcg5VRHFtzT_5H1Z-77" target="BzwNZcg5VRHFtzT_5H1Z-80" edge="1">
          <mxGeometry relative="1" as="geometry" />
        </mxCell>
        <mxCell id="BzwNZcg5VRHFtzT_5H1Z-77" value="adiciona pedido à conta" style="html=1;align=center;verticalAlign=top;rounded=1;absoluteArcSize=1;arcSize=10;dashed=0;whiteSpace=wrap;" parent="1" vertex="1">
          <mxGeometry x="275" y="-1900" width="140" height="40" as="geometry" />
        </mxCell>
        <mxCell id="BzwNZcg5VRHFtzT_5H1Z-80" value="" style="ellipse;html=1;shape=endState;fillColor=strokeColor;" parent="1" vertex="1">
          <mxGeometry x="330" y="-1820" width="30" height="30" as="geometry" />
        </mxCell>
        <mxCell id="BzwNZcg5VRHFtzT_5H1Z-83" style="edgeStyle=orthogonalEdgeStyle;rounded=0;orthogonalLoop=1;jettySize=auto;html=1;entryX=1;entryY=0.5;entryDx=0;entryDy=0;endArrow=none;endFill=0;dashed=1;dashPattern=8 8;" parent="1" source="BzwNZcg5VRHFtzT_5H1Z-82" target="BzwNZcg5VRHFtzT_5H1Z-80" edge="1">
          <mxGeometry relative="1" as="geometry" />
        </mxCell>
        <mxCell id="BzwNZcg5VRHFtzT_5H1Z-82" value="pedido é enviado para a cozinha" style="shape=note2;boundedLbl=1;whiteSpace=wrap;html=1;size=25;verticalAlign=top;align=center;" parent="1" vertex="1">
          <mxGeometry x="450" y="-1835" width="120" height="60" as="geometry" />
        </mxCell>
        <mxCell id="BzwNZcg5VRHFtzT_5H1Z-84" value="Atendente anota um pedido" style="shape=umlFrame;whiteSpace=wrap;html=1;pointerEvents=0;recursiveResize=0;container=1;collapsible=0;width=160;" parent="1" vertex="1">
          <mxGeometry x="60" y="-2320" width="540" height="570" as="geometry" />
        </mxCell>
        <mxCell id="BzwNZcg5VRHFtzT_5H1Z-65" value="Cliente escolhe os itens e informa o atendente" style="shape=note2;boundedLbl=1;whiteSpace=wrap;html=1;size=25;verticalAlign=top;align=center;" parent="BzwNZcg5VRHFtzT_5H1Z-84" vertex="1">
          <mxGeometry x="20" y="40" width="120" height="80" as="geometry" />
        </mxCell>
        <mxCell id="BzwNZcg5VRHFtzT_5H1Z-87" style="edgeStyle=orthogonalEdgeStyle;rounded=0;orthogonalLoop=1;jettySize=auto;html=1;entryX=0;entryY=0.5;entryDx=0;entryDy=0;dashed=1;dashPattern=8 8;endArrow=none;endFill=0;" parent="1" source="BzwNZcg5VRHFtzT_5H1Z-85" target="BzwNZcg5VRHFtzT_5H1Z-86" edge="1">
          <mxGeometry relative="1" as="geometry" />
        </mxCell>
        <mxCell id="BzwNZcg5VRHFtzT_5H1Z-85" value="Administrador logado no sistema" style="shape=note2;boundedLbl=1;whiteSpace=wrap;html=1;size=25;verticalAlign=top;align=center;" parent="1" vertex="1">
          <mxGeometry x="660" y="-2270" width="120" height="60" as="geometry" />
        </mxCell>
        <mxCell id="BzwNZcg5VRHFtzT_5H1Z-90" style="edgeStyle=orthogonalEdgeStyle;rounded=0;orthogonalLoop=1;jettySize=auto;html=1;entryX=0.5;entryY=0;entryDx=0;entryDy=0;" parent="1" source="BzwNZcg5VRHFtzT_5H1Z-86" target="BzwNZcg5VRHFtzT_5H1Z-88" edge="1">
          <mxGeometry relative="1" as="geometry" />
        </mxCell>
        <mxCell id="BzwNZcg5VRHFtzT_5H1Z-86" value="" style="ellipse;fillColor=strokeColor;html=1;" parent="1" vertex="1">
          <mxGeometry x="910" y="-2255" width="30" height="30" as="geometry" />
        </mxCell>
        <mxCell id="BzwNZcg5VRHFtzT_5H1Z-94" style="edgeStyle=orthogonalEdgeStyle;rounded=0;orthogonalLoop=1;jettySize=auto;html=1;entryX=0.5;entryY=0;entryDx=0;entryDy=0;" parent="1" source="BzwNZcg5VRHFtzT_5H1Z-88" target="BzwNZcg5VRHFtzT_5H1Z-91" edge="1">
          <mxGeometry relative="1" as="geometry" />
        </mxCell>
        <mxCell id="BzwNZcg5VRHFtzT_5H1Z-88" value="acessa o cardápio" style="html=1;align=center;verticalAlign=top;rounded=1;absoluteArcSize=1;arcSize=10;dashed=0;whiteSpace=wrap;" parent="1" vertex="1">
          <mxGeometry x="855" y="-2190" width="140" height="40" as="geometry" />
        </mxCell>
        <mxCell id="BzwNZcg5VRHFtzT_5H1Z-95" style="edgeStyle=orthogonalEdgeStyle;rounded=0;orthogonalLoop=1;jettySize=auto;html=1;entryX=0.5;entryY=0;entryDx=0;entryDy=0;" parent="1" source="BzwNZcg5VRHFtzT_5H1Z-91" target="BzwNZcg5VRHFtzT_5H1Z-92" edge="1">
          <mxGeometry relative="1" as="geometry" />
        </mxCell>
        <mxCell id="BzwNZcg5VRHFtzT_5H1Z-91" value="adicionar novo item" style="html=1;align=center;verticalAlign=top;rounded=1;absoluteArcSize=1;arcSize=10;dashed=0;whiteSpace=wrap;" parent="1" vertex="1">
          <mxGeometry x="855" y="-2110" width="140" height="40" as="geometry" />
        </mxCell>
        <mxCell id="BzwNZcg5VRHFtzT_5H1Z-96" style="edgeStyle=orthogonalEdgeStyle;rounded=0;orthogonalLoop=1;jettySize=auto;html=1;entryX=0.5;entryY=0;entryDx=0;entryDy=0;" parent="1" source="BzwNZcg5VRHFtzT_5H1Z-92" target="BzwNZcg5VRHFtzT_5H1Z-93" edge="1">
          <mxGeometry relative="1" as="geometry" />
        </mxCell>
        <mxCell id="BzwNZcg5VRHFtzT_5H1Z-92" value="inserir informações do item" style="html=1;align=center;verticalAlign=top;rounded=1;absoluteArcSize=1;arcSize=10;dashed=0;whiteSpace=wrap;" parent="1" vertex="1">
          <mxGeometry x="855" y="-2030" width="140" height="40" as="geometry" />
        </mxCell>
        <mxCell id="BzwNZcg5VRHFtzT_5H1Z-99" style="edgeStyle=orthogonalEdgeStyle;rounded=0;orthogonalLoop=1;jettySize=auto;html=1;entryX=0;entryY=0.5;entryDx=0;entryDy=0;" parent="1" source="BzwNZcg5VRHFtzT_5H1Z-93" target="BzwNZcg5VRHFtzT_5H1Z-98" edge="1">
          <mxGeometry relative="1" as="geometry" />
        </mxCell>
        <mxCell id="BzwNZcg5VRHFtzT_5H1Z-100" value="NÃO" style="edgeLabel;html=1;align=center;verticalAlign=middle;resizable=0;points=[];" parent="BzwNZcg5VRHFtzT_5H1Z-99" vertex="1" connectable="0">
          <mxGeometry x="-0.3027" y="3" relative="1" as="geometry">
            <mxPoint as="offset" />
          </mxGeometry>
        </mxCell>
        <mxCell id="BzwNZcg5VRHFtzT_5H1Z-102" style="edgeStyle=orthogonalEdgeStyle;rounded=0;orthogonalLoop=1;jettySize=auto;html=1;" parent="1" source="BzwNZcg5VRHFtzT_5H1Z-93" target="BzwNZcg5VRHFtzT_5H1Z-101" edge="1">
          <mxGeometry relative="1" as="geometry" />
        </mxCell>
        <mxCell id="BzwNZcg5VRHFtzT_5H1Z-103" value="SIM" style="edgeLabel;html=1;align=center;verticalAlign=middle;resizable=0;points=[];" parent="BzwNZcg5VRHFtzT_5H1Z-102" vertex="1" connectable="0">
          <mxGeometry x="-0.2353" y="1" relative="1" as="geometry">
            <mxPoint as="offset" />
          </mxGeometry>
        </mxCell>
        <mxCell id="BzwNZcg5VRHFtzT_5H1Z-93" value="as informações&#xa;estão corretas?" style="rhombus;" parent="1" vertex="1">
          <mxGeometry x="875" y="-1950" width="100" height="100" as="geometry" />
        </mxCell>
        <mxCell id="BzwNZcg5VRHFtzT_5H1Z-104" style="edgeStyle=orthogonalEdgeStyle;rounded=0;orthogonalLoop=1;jettySize=auto;html=1;entryX=1;entryY=0.5;entryDx=0;entryDy=0;exitX=0.5;exitY=1;exitDx=0;exitDy=0;" parent="1" source="BzwNZcg5VRHFtzT_5H1Z-98" target="BzwNZcg5VRHFtzT_5H1Z-101" edge="1">
          <mxGeometry relative="1" as="geometry">
            <mxPoint x="1100" y="-1820" as="targetPoint" />
          </mxGeometry>
        </mxCell>
        <mxCell id="BzwNZcg5VRHFtzT_5H1Z-98" value="corrige as informações" style="html=1;align=center;verticalAlign=top;rounded=1;absoluteArcSize=1;arcSize=10;dashed=0;whiteSpace=wrap;" parent="1" vertex="1">
          <mxGeometry x="1030" y="-1920" width="140" height="40" as="geometry" />
        </mxCell>
        <mxCell id="BzwNZcg5VRHFtzT_5H1Z-106" style="edgeStyle=orthogonalEdgeStyle;rounded=0;orthogonalLoop=1;jettySize=auto;html=1;" parent="1" source="BzwNZcg5VRHFtzT_5H1Z-101" target="BzwNZcg5VRHFtzT_5H1Z-105" edge="1">
          <mxGeometry relative="1" as="geometry" />
        </mxCell>
        <mxCell id="BzwNZcg5VRHFtzT_5H1Z-101" value="confirma a adição do novo item" style="html=1;align=center;verticalAlign=top;rounded=1;absoluteArcSize=1;arcSize=10;dashed=0;whiteSpace=wrap;" parent="1" vertex="1">
          <mxGeometry x="855" y="-1810" width="140" height="40" as="geometry" />
        </mxCell>
        <mxCell id="BzwNZcg5VRHFtzT_5H1Z-105" value="" style="ellipse;html=1;shape=endState;fillColor=strokeColor;" parent="1" vertex="1">
          <mxGeometry x="910" y="-1730" width="30" height="30" as="geometry" />
        </mxCell>
        <mxCell id="BzwNZcg5VRHFtzT_5H1Z-107" value="Administrador adiciona item ao cardapio" style="shape=umlFrame;whiteSpace=wrap;html=1;pointerEvents=0;recursiveResize=0;container=1;collapsible=0;width=160;" parent="1" vertex="1">
          <mxGeometry x="640" y="-2320" width="540" height="650" as="geometry" />
        </mxCell>
        <mxCell id="BzwNZcg5VRHFtzT_5H1Z-108" value="Geração do relatório de vendas" style="shape=umlFrame;whiteSpace=wrap;html=1;pointerEvents=0;recursiveResize=0;container=1;collapsible=0;width=160;" parent="1" vertex="1">
          <mxGeometry x="1221" y="-2320" width="540" height="840" as="geometry" />
        </mxCell>
        <mxCell id="BzwNZcg5VRHFtzT_5H1Z-111" style="edgeStyle=orthogonalEdgeStyle;rounded=0;orthogonalLoop=1;jettySize=auto;html=1;entryX=0;entryY=0.5;entryDx=0;entryDy=0;endArrow=none;endFill=0;dashed=1;dashPattern=8 8;" parent="BzwNZcg5VRHFtzT_5H1Z-108" source="BzwNZcg5VRHFtzT_5H1Z-109" target="BzwNZcg5VRHFtzT_5H1Z-110" edge="1">
          <mxGeometry relative="1" as="geometry" />
        </mxCell>
        <mxCell id="BzwNZcg5VRHFtzT_5H1Z-109" value="Usuário logado no sistema" style="shape=note2;boundedLbl=1;whiteSpace=wrap;html=1;size=25;verticalAlign=top;align=center;" parent="BzwNZcg5VRHFtzT_5H1Z-108" vertex="1">
          <mxGeometry x="20" y="50" width="120" height="60" as="geometry" />
        </mxCell>
        <mxCell id="BzwNZcg5VRHFtzT_5H1Z-114" style="edgeStyle=orthogonalEdgeStyle;rounded=0;orthogonalLoop=1;jettySize=auto;html=1;entryX=0.5;entryY=0;entryDx=0;entryDy=0;" parent="BzwNZcg5VRHFtzT_5H1Z-108" source="BzwNZcg5VRHFtzT_5H1Z-110" target="BzwNZcg5VRHFtzT_5H1Z-112" edge="1">
          <mxGeometry relative="1" as="geometry" />
        </mxCell>
        <mxCell id="BzwNZcg5VRHFtzT_5H1Z-110" value="" style="ellipse;fillColor=strokeColor;html=1;" parent="BzwNZcg5VRHFtzT_5H1Z-108" vertex="1">
          <mxGeometry x="270" y="65" width="30" height="30" as="geometry" />
        </mxCell>
        <mxCell id="BzwNZcg5VRHFtzT_5H1Z-115" style="edgeStyle=orthogonalEdgeStyle;rounded=0;orthogonalLoop=1;jettySize=auto;html=1;entryX=0.5;entryY=0;entryDx=0;entryDy=0;" parent="BzwNZcg5VRHFtzT_5H1Z-108" source="BzwNZcg5VRHFtzT_5H1Z-112" target="BzwNZcg5VRHFtzT_5H1Z-113" edge="1">
          <mxGeometry relative="1" as="geometry" />
        </mxCell>
        <mxCell id="BzwNZcg5VRHFtzT_5H1Z-112" value="acessa o controle financeiro" style="html=1;align=center;verticalAlign=top;rounded=1;absoluteArcSize=1;arcSize=10;dashed=0;whiteSpace=wrap;" parent="BzwNZcg5VRHFtzT_5H1Z-108" vertex="1">
          <mxGeometry x="215" y="130" width="140" height="40" as="geometry" />
        </mxCell>
        <mxCell id="BzwNZcg5VRHFtzT_5H1Z-117" style="edgeStyle=orthogonalEdgeStyle;rounded=0;orthogonalLoop=1;jettySize=auto;html=1;entryX=1;entryY=0.5;entryDx=0;entryDy=0;" parent="BzwNZcg5VRHFtzT_5H1Z-108" source="BzwNZcg5VRHFtzT_5H1Z-113" target="BzwNZcg5VRHFtzT_5H1Z-116" edge="1">
          <mxGeometry relative="1" as="geometry" />
        </mxCell>
        <mxCell id="BzwNZcg5VRHFtzT_5H1Z-118" value="NÃO" style="edgeLabel;html=1;align=center;verticalAlign=middle;resizable=0;points=[];" parent="BzwNZcg5VRHFtzT_5H1Z-117" vertex="1" connectable="0">
          <mxGeometry x="0.0163" y="1" relative="1" as="geometry">
            <mxPoint as="offset" />
          </mxGeometry>
        </mxCell>
        <mxCell id="BzwNZcg5VRHFtzT_5H1Z-120" style="edgeStyle=orthogonalEdgeStyle;rounded=0;orthogonalLoop=1;jettySize=auto;html=1;entryX=0.5;entryY=0;entryDx=0;entryDy=0;" parent="BzwNZcg5VRHFtzT_5H1Z-108" source="BzwNZcg5VRHFtzT_5H1Z-113" target="BzwNZcg5VRHFtzT_5H1Z-119" edge="1">
          <mxGeometry relative="1" as="geometry" />
        </mxCell>
        <mxCell id="BzwNZcg5VRHFtzT_5H1Z-121" value="SIM" style="edgeLabel;html=1;align=center;verticalAlign=middle;resizable=0;points=[];" parent="BzwNZcg5VRHFtzT_5H1Z-120" vertex="1" connectable="0">
          <mxGeometry x="-0.0933" y="-1" relative="1" as="geometry">
            <mxPoint as="offset" />
          </mxGeometry>
        </mxCell>
        <mxCell id="BzwNZcg5VRHFtzT_5H1Z-113" value="usuário possui&#xa;permissão?" style="rhombus;" parent="BzwNZcg5VRHFtzT_5H1Z-108" vertex="1">
          <mxGeometry x="235" y="220" width="100" height="100" as="geometry" />
        </mxCell>
        <mxCell id="BzwNZcg5VRHFtzT_5H1Z-116" value="acesso negado" style="html=1;align=center;verticalAlign=top;rounded=1;absoluteArcSize=1;arcSize=10;dashed=0;whiteSpace=wrap;" parent="BzwNZcg5VRHFtzT_5H1Z-108" vertex="1">
          <mxGeometry x="20" y="250" width="140" height="40" as="geometry" />
        </mxCell>
        <mxCell id="BzwNZcg5VRHFtzT_5H1Z-123" style="edgeStyle=orthogonalEdgeStyle;rounded=0;orthogonalLoop=1;jettySize=auto;html=1;entryX=0.5;entryY=0;entryDx=0;entryDy=0;" parent="BzwNZcg5VRHFtzT_5H1Z-108" source="BzwNZcg5VRHFtzT_5H1Z-119" target="BzwNZcg5VRHFtzT_5H1Z-122" edge="1">
          <mxGeometry relative="1" as="geometry" />
        </mxCell>
        <mxCell id="BzwNZcg5VRHFtzT_5H1Z-119" value="acesso autorizado" style="html=1;align=center;verticalAlign=top;rounded=1;absoluteArcSize=1;arcSize=10;dashed=0;whiteSpace=wrap;" parent="BzwNZcg5VRHFtzT_5H1Z-108" vertex="1">
          <mxGeometry x="215" y="370" width="140" height="40" as="geometry" />
        </mxCell>
        <mxCell id="BzwNZcg5VRHFtzT_5H1Z-125" style="edgeStyle=orthogonalEdgeStyle;rounded=0;orthogonalLoop=1;jettySize=auto;html=1;entryX=0.5;entryY=0;entryDx=0;entryDy=0;" parent="BzwNZcg5VRHFtzT_5H1Z-108" source="BzwNZcg5VRHFtzT_5H1Z-122" target="BzwNZcg5VRHFtzT_5H1Z-124" edge="1">
          <mxGeometry relative="1" as="geometry" />
        </mxCell>
        <mxCell id="BzwNZcg5VRHFtzT_5H1Z-122" value="solicitar relatorio" style="html=1;align=center;verticalAlign=top;rounded=1;absoluteArcSize=1;arcSize=10;dashed=0;whiteSpace=wrap;" parent="BzwNZcg5VRHFtzT_5H1Z-108" vertex="1">
          <mxGeometry x="215" y="460" width="140" height="40" as="geometry" />
        </mxCell>
        <mxCell id="BzwNZcg5VRHFtzT_5H1Z-127" style="edgeStyle=orthogonalEdgeStyle;rounded=0;orthogonalLoop=1;jettySize=auto;html=1;entryX=0.5;entryY=0;entryDx=0;entryDy=0;" parent="BzwNZcg5VRHFtzT_5H1Z-108" source="BzwNZcg5VRHFtzT_5H1Z-124" target="BzwNZcg5VRHFtzT_5H1Z-126" edge="1">
          <mxGeometry relative="1" as="geometry" />
        </mxCell>
        <mxCell id="BzwNZcg5VRHFtzT_5H1Z-124" value="inserir intervalo de tempo" style="html=1;align=center;verticalAlign=top;rounded=1;absoluteArcSize=1;arcSize=10;dashed=0;whiteSpace=wrap;" parent="BzwNZcg5VRHFtzT_5H1Z-108" vertex="1">
          <mxGeometry x="215" y="550" width="140" height="40" as="geometry" />
        </mxCell>
        <mxCell id="BzwNZcg5VRHFtzT_5H1Z-129" style="edgeStyle=orthogonalEdgeStyle;rounded=0;orthogonalLoop=1;jettySize=auto;html=1;entryX=0.5;entryY=0;entryDx=0;entryDy=0;" parent="BzwNZcg5VRHFtzT_5H1Z-108" source="BzwNZcg5VRHFtzT_5H1Z-126" target="BzwNZcg5VRHFtzT_5H1Z-128" edge="1">
          <mxGeometry relative="1" as="geometry" />
        </mxCell>
        <mxCell id="BzwNZcg5VRHFtzT_5H1Z-126" value="confirmar" style="html=1;align=center;verticalAlign=top;rounded=1;absoluteArcSize=1;arcSize=10;dashed=0;whiteSpace=wrap;" parent="BzwNZcg5VRHFtzT_5H1Z-108" vertex="1">
          <mxGeometry x="215" y="640" width="140" height="40" as="geometry" />
        </mxCell>
        <mxCell id="BzwNZcg5VRHFtzT_5H1Z-128" value="" style="ellipse;html=1;shape=endState;fillColor=strokeColor;" parent="BzwNZcg5VRHFtzT_5H1Z-108" vertex="1">
          <mxGeometry x="270" y="730" width="30" height="30" as="geometry" />
        </mxCell>
        <mxCell id="BzwNZcg5VRHFtzT_5H1Z-130" value="relatorio exibido para o usuário" style="shape=note2;boundedLbl=1;whiteSpace=wrap;html=1;size=25;verticalAlign=top;align=center;" parent="BzwNZcg5VRHFtzT_5H1Z-108" vertex="1">
          <mxGeometry x="399" y="715" width="120" height="60" as="geometry" />
        </mxCell>
        <mxCell id="BzwNZcg5VRHFtzT_5H1Z-131" style="edgeStyle=orthogonalEdgeStyle;rounded=0;orthogonalLoop=1;jettySize=auto;html=1;entryX=0;entryY=0.5;entryDx=0;entryDy=0;entryPerimeter=0;endArrow=none;endFill=0;dashed=1;dashPattern=8 8;" parent="BzwNZcg5VRHFtzT_5H1Z-108" source="BzwNZcg5VRHFtzT_5H1Z-128" target="BzwNZcg5VRHFtzT_5H1Z-130" edge="1">
          <mxGeometry relative="1" as="geometry" />
        </mxCell>
      </root>
    </mxGraphModel>
  </diagram>
</mxfile>
